<svg width="169" height="56" viewBox="0 0 169 56" fill="none" xmlns="http://www.w3.org/2000/svg">
<g filter="url(#filter0_d_57_2)">
<path fill-rule="evenodd" clip-rule="evenodd" d="M18.0172 0H18.88H44.9753H45.8508L46.2813 0.762315L59.0432 23.3573L59.4616 24.0981L59.0406 24.8373L46.2786 47.2424L45.8471 48H44.9753H18.88H18.0209L17.5862 47.259L4.44334 24.8539L4 24.0981L4.44056 23.3407L17.5834 0.745801L18.0172 0ZM19.7428 3L7.47432 24.0917L19.7391 45H44.1034L56.0127 24.0918L44.0998 3H19.7428ZM24.4363 11H25.3086H38.3562H39.2411L39.6691 11.7746L46.0501 23.3231L46.4526 24.0516L46.0475 24.7787L39.6665 36.2301L39.2375 37H38.3562H25.3086H24.4399L24.0076 36.2466L17.4362 24.7951L17.0095 24.0517L17.4334 23.3067L24.0049 11.7582L24.4363 11ZM26.1809 14L20.4648 24.0454L26.1772 34H37.4749L43.0217 24.0455L37.4713 14H26.1809ZM75.56 30.424V43H69.656V9.4C70.7468 9.4 73.712 9.3674 76.1867 9.3402C77.9588 9.32071 79.4794 9.304 79.88 9.304C89.048 9.304 92.072 13.864 92.072 19.672C92.072 25.432 88.376 28.312 85.592 29.272L96.104 43H88.952L79.688 30.424H75.56ZM85.832 19.72C85.832 17.08 84.392 14.824 79.592 14.824C78.6593 14.824 77.5553 14.8583 76.28 14.8978C76.0458 14.9051 75.8058 14.9126 75.56 14.92V24.904H79.4C82.808 24.904 85.832 23.176 85.832 19.72ZM107.154 43H101.25V9.4H107.202L118.674 25.096L129.618 9.4H135.186V43H129.33V18.712L118.722 33.64H117.858L107.154 18.856V43ZM153.107 38.008C155.891 38.008 158.003 36.616 158.003 34.072C158.003 31.1736 155.09 29.8559 151.813 28.3736C147.601 26.4684 142.787 24.2913 142.787 18.136C142.787 13.096 146.723 8.872 153.251 8.872C157.379 8.872 160.835 10.264 162.851 12.472L159.683 16.888C158.051 15.304 156.419 14.392 153.731 14.392C150.803 14.392 149.027 15.88 149.027 18.088C149.027 21.1573 151.986 22.4436 155.295 23.8818C159.488 25.7049 164.243 27.772 164.243 34.024C164.243 39.688 159.299 43.528 153.011 43.528C148.691 43.528 143.651 41.656 142.019 38.248L145.379 34.216C147.347 36.76 150.515 38.008 153.107 38.008Z" fill="url(#paint0_linear_57_2)" shape-rendering="crispEdges"/>
</g>
<defs>
<filter id="filter0_d_57_2" x="0" y="0" width="168.243" height="56" filterUnits="userSpaceOnUse" color-interpolation-filters="sRGB">
<feFlood flood-opacity="0" result="BackgroundImageFix"/>
<feColorMatrix in="SourceAlpha" type="matrix" values="0 0 0 0 0 0 0 0 0 0 0 0 0 0 0 0 0 0 127 0" result="hardAlpha"/>
<feOffset dy="4"/>
<feGaussianBlur stdDeviation="2"/>
<feComposite in2="hardAlpha" operator="out"/>
<feColorMatrix type="matrix" values="0 0 0 0 0 0 0 0 0 0 0 0 0 0 0 0 0 0 0.25 0"/>
<feBlend mode="normal" in2="BackgroundImageFix" result="effect1_dropShadow_57_2"/>
<feBlend mode="normal" in="SourceGraphic" in2="effect1_dropShadow_57_2" result="shape"/>
</filter>
<linearGradient id="paint0_linear_57_2" x1="31.7308" y1="-6.94401e-09" x2="32" y2="60.5" gradientUnits="userSpaceOnUse">
<stop stop-color="white"/>
<stop offset="1" stop-color="white" stop-opacity="0"/>
</linearGradient>
</defs>
</svg>
